<svg width="174" height="132" viewBox="0 0 174 132" fill="none" xmlns="http://www.w3.org/2000/svg">
<path d="M136.701 5.02542C142.187 0.658146 148.649 -0.683788 154.64 0.311557C154.675 0.317451 154.711 0.323077 154.746 0.329135C155.213 0.40892 155.676 0.503481 156.137 0.611361C156.161 0.617001 156.185 0.622248 156.209 0.627963C156.675 0.738721 157.137 0.863098 157.595 1.00199C157.612 1.00734 157.63 1.0132 157.647 1.01859C157.943 1.10894 158.236 1.20484 158.527 1.30667C158.542 1.3119 158.557 1.31704 158.572 1.3223C159.017 1.47875 159.456 1.64938 159.891 1.83206C159.925 1.84671 159.96 1.8612 159.995 1.87601C160.324 2.01641 160.652 2.16125 160.975 2.31644L161.311 2.48441C161.332 2.49503 161.353 2.50595 161.374 2.51663C161.774 2.71852 162.168 2.9319 162.557 3.15628C162.608 3.1857 162.658 3.21536 162.709 3.24515C162.928 3.37399 163.145 3.50573 163.36 3.64163C163.412 3.6744 163.464 3.7071 163.516 3.74027C163.625 3.81071 163.733 3.88284 163.842 3.95511C163.915 4.00375 163.987 4.05311 164.06 4.10257C164.233 4.22083 164.404 4.34098 164.574 4.4639C164.635 4.50801 164.696 4.55201 164.757 4.59671C164.868 4.67915 164.98 4.76227 165.09 4.84671C165.167 4.90551 165.242 4.96566 165.318 5.02542C165.457 5.13414 165.594 5.24458 165.729 5.35648C165.819 5.42976 165.907 5.50352 165.995 5.57816C166.077 5.64747 166.159 5.71668 166.239 5.78714C166.353 5.88609 166.465 5.98671 166.576 6.08792C166.683 6.18513 166.789 6.28357 166.895 6.38285C166.981 6.46399 167.066 6.54545 167.151 6.62796C167.219 6.69374 167.287 6.75956 167.354 6.82621C167.493 6.9647 167.63 7.1049 167.766 7.2471C167.833 7.31743 167.899 7.38877 167.965 7.45999C168.066 7.56897 168.166 7.67901 168.266 7.79007C168.307 7.83681 168.35 7.88261 168.392 7.92972C168.531 8.08881 168.668 8.25085 168.804 8.4141C168.853 8.47315 168.902 8.53224 168.95 8.59183C169.082 8.75365 169.212 8.91729 169.339 9.08304C169.361 9.11159 169.382 9.14032 169.404 9.16898C169.526 9.32887 169.645 9.49087 169.763 9.65433C169.805 9.71342 169.848 9.77252 169.89 9.83206C170.01 10.0035 170.13 10.1763 170.246 10.3516C170.289 10.4158 170.329 10.4813 170.371 10.5459C170.455 10.6758 170.538 10.8066 170.62 10.9385C170.663 11.0081 170.707 11.0774 170.749 11.1475C170.857 11.3264 170.963 11.507 171.066 11.6895C171.104 11.7557 171.14 11.823 171.177 11.8897C171.258 12.0358 171.337 12.1827 171.415 12.3311C171.446 12.39 171.477 12.4486 171.508 12.5078C171.613 12.7125 171.715 12.9192 171.813 13.128C171.837 13.1776 171.86 13.2276 171.883 13.2774C171.965 13.4539 172.044 13.6321 172.122 13.8116C172.144 13.8625 172.168 13.9128 172.189 13.9639C172.277 14.1712 172.361 14.3808 172.443 14.5918C172.482 14.6918 172.521 14.7919 172.559 14.8926C172.569 14.9197 172.58 14.9465 172.59 14.9737C172.758 15.4299 172.911 15.8946 173.051 16.3672C173.068 16.426 173.086 16.4849 173.103 16.544C173.116 16.5924 173.13 16.6409 173.144 16.6895C173.227 16.9891 173.305 17.2919 173.377 17.5977C173.406 17.7196 173.433 17.842 173.46 17.9649C173.471 18.0152 173.482 18.0657 173.492 18.1162C173.514 18.2217 173.536 18.3275 173.557 18.4336C173.569 18.4967 173.582 18.5598 173.594 18.6231C173.653 18.941 173.707 19.2619 173.754 19.586C173.762 19.6393 173.769 19.6927 173.776 19.7461C173.792 19.8619 173.807 19.9782 173.821 20.0948C173.828 20.1497 173.834 20.2047 173.841 20.2598C173.857 20.4021 173.872 20.5451 173.886 20.6885C173.888 20.7071 173.89 20.7256 173.892 20.7442C173.908 20.9147 173.923 21.0858 173.936 21.2578C173.939 21.3011 173.941 21.3444 173.944 21.3877C173.953 21.5207 173.961 21.6542 173.968 21.7881C173.972 21.8684 173.975 21.9488 173.979 22.0293C173.983 22.131 173.985 22.2329 173.988 22.335C173.99 22.3916 173.992 22.4482 173.993 22.5049C173.997 22.6829 174 22.8616 174 23.041V108.052C174 109.583 173.769 111.061 173.343 112.452C169.545 128.125 150.089 135.675 136.565 124.773L91.7607 88.6563C97.4502 87.8061 102.959 85.4435 107.648 81.5684L119.065 72.1328L144 92.2325V37.9063L101.589 72.9551C93.1664 79.9154 81.0095 79.989 72.5029 73.1319L30 38.8702V93.1973L55.0156 72.5225L66.5479 81.8194C71.2834 85.6367 76.8198 87.9321 82.5186 88.7129L37.6514 125.792C22.6537 138.186 2.96115e-05 127.518 0 108.063V24.2364C2.75221e-06 24.0549 0.00193469 23.8743 0.00585938 23.6944C0.00657735 23.6615 0.00794081 23.6286 0.00878906 23.5957C0.0224869 23.0651 0.0526122 22.5413 0.0996094 22.0244C0.10953 21.9154 0.121443 21.8067 0.132812 21.6983C0.13944 21.6351 0.145227 21.5718 0.152344 21.5088C0.161819 21.4249 0.17228 21.3413 0.182617 21.2578C0.200788 21.1111 0.2204 20.9649 0.241211 20.8194C0.241485 20.8175 0.240937 20.8154 0.241211 20.8135C0.313413 20.3094 0.401816 19.8126 0.504883 19.3233C0.52042 19.2495 0.536512 19.176 0.552734 19.1026C0.620574 18.7955 0.693814 18.4914 0.773438 18.1905C0.787956 18.1356 0.803455 18.0811 0.818359 18.0264C0.848016 17.9176 0.878008 17.8092 0.90918 17.7012C0.920191 17.6631 0.931184 17.625 0.942383 17.5869C0.963439 17.5154 0.985119 17.4442 1.00684 17.3731C1.06914 17.169 1.13448 16.9666 1.20215 16.7657C1.21371 16.7313 1.22363 16.6964 1.23535 16.6621C1.31168 16.439 1.39277 16.2183 1.47559 15.9991C1.49606 15.9448 1.51722 15.8909 1.53809 15.8369C1.61725 15.6322 1.69849 15.4289 1.7832 15.2276C1.79413 15.2016 1.80441 15.1754 1.81543 15.1494C1.90137 14.9474 1.99061 14.7473 2.08203 14.5489C2.1144 14.4786 2.14762 14.4087 2.18066 14.3389C2.37713 13.9238 2.58591 13.517 2.80566 13.1182C2.83725 13.0609 2.86834 13.0033 2.90039 12.9463C3.01339 12.7455 3.12835 12.5462 3.24707 12.3496C3.2637 12.3221 3.28111 12.2951 3.29785 12.2676C3.40199 12.0969 3.50883 11.9282 3.61719 11.7608C3.6538 11.7042 3.68947 11.647 3.72656 11.5909C3.84432 11.4125 3.96445 11.236 4.08691 11.0616C4.12232 11.0111 4.15855 10.9613 4.19434 10.9112C4.29408 10.7715 4.39534 10.6332 4.49805 10.4961C4.54491 10.4336 4.5912 10.3706 4.63867 10.3086C4.75927 10.1511 4.88239 9.99581 5.00684 9.84183C5.06224 9.77326 5.11865 9.70559 5.1748 9.63773C5.26913 9.52376 5.36453 9.41082 5.46094 9.29886C5.51742 9.23325 5.57367 9.16749 5.63086 9.10257C5.75239 8.96465 5.87535 8.82815 6 8.69339C6.08118 8.60561 6.16362 8.51908 6.24609 8.43265C6.31463 8.36085 6.38371 8.28964 6.45312 8.21878C6.56593 8.1036 6.67983 7.98966 6.79492 7.87699C6.88578 7.78807 6.97709 7.69968 7.06934 7.61234C7.15817 7.5282 7.24779 7.445 7.33789 7.36234C7.42676 7.28084 7.51637 7.20021 7.60645 7.12015C7.70027 7.03674 7.79454 6.95393 7.88965 6.8721C8.00389 6.77385 8.1193 6.67705 8.23535 6.58109C8.32129 6.51001 8.40722 6.43898 8.49414 6.36917C8.59466 6.28847 8.69606 6.20891 8.79785 6.12992C8.90872 6.04386 9.02046 5.95905 9.13281 5.87503C9.23316 5.80002 9.33404 5.72575 9.43555 5.65238C9.53146 5.58303 9.62769 5.51419 9.72461 5.44632C9.78985 5.40065 9.85618 5.35656 9.92188 5.31156C10.1042 5.18663 10.2879 5.06405 10.4736 4.94437C10.5406 4.90123 10.6074 4.85792 10.6748 4.81546C10.7417 4.77333 10.8077 4.72997 10.875 4.68851L11.0068 4.60941C11.0779 4.56623 11.1501 4.52487 11.2217 4.48246C11.4288 4.35963 11.6369 4.23851 11.8477 4.1221C11.8649 4.1126 11.8822 4.10325 11.8994 4.09378C12.7591 3.62178 13.6479 3.20449 14.5596 2.84281C14.587 2.83193 14.6141 2.82038 14.6416 2.8096C15.8519 2.33467 17.102 1.96017 18.3779 1.69144C18.4007 1.68664 18.4235 1.68152 18.4463 1.67679C18.9129 1.57998 19.3828 1.49771 19.8555 1.42972C19.873 1.42719 19.8906 1.4244 19.9082 1.42191C25.6579 0.60815 31.8004 1.94871 37.0811 6.04984L37.4346 6.33011L86.8809 46.1895L136.349 5.31156L136.701 5.02542Z" fill="white"/>
</svg>
